<svg xmlns="http://www.w3.org/2000/svg" xmlns:xlink="http://www.w3.org/1999/xlink" viewBox="0 0 173.89 67.06"><defs><style>.cls-1{fill:#fff;}.cls-2{fill:url(#linear-gradient);}.cls-3{fill:url(#linear-gradient-2);}.cls-4{fill:#f3ad00;}.cls-5{fill:#fcc200;}.cls-6{fill:#ffd000;}</style><linearGradient id="linear-gradient" x1="4.09" y1="38.36" x2="43.18" y2="-0.73" gradientUnits="userSpaceOnUse"><stop offset="0" stop-color="#ee8c00"/><stop offset="0.4" stop-color="#d7581b"/><stop offset="0.8" stop-color="#c22933"/><stop offset="1" stop-color="#ba173c"/></linearGradient><linearGradient id="linear-gradient-2" x1="21.8" y1="38.89" x2="21.8" gradientUnits="userSpaceOnUse"><stop offset="0" stop-color="#f4ac00"/><stop offset="1" stop-color="#e30d3e"/></linearGradient></defs><title>Comet Logo - Light</title><g id="Layer_2" data-name="Layer 2"><g id="Layer_1-2" data-name="Layer 1"><path class="cls-1" d="M77.18,29.39c-1,0-1.77-1.24-4.38-1.24-3,0-4.29,1.5-4.29,4.07v3.54c0,2.57,1.28,4.07,4.33,4.07,2.66,0,3.32-1.32,4.43-1.32a2.68,2.68,0,0,1,2.44,2.7c0,1.77-3.15,3.62-7.31,3.62-6.68,0-9.6-3.89-9.6-9.07V32.22c0-5.09,2.87-9.07,9.56-9.07,4.16,0,7.08,1.72,7.08,3.45,0,1.06-.89,2.79-2.26,2.79ZM91.35,44.83c-5.18,0-9.61-4.29-9.61-9.07V32.13c0-4.78,4.34-9,9.61-9s9.6,4.07,9.6,9v3.63c0,4.74-4.47,9.07-9.6,9.07Zm3.89-12.7a3.9,3.9,0,1,0-7.79,0v3.63a3.9,3.9,0,1,0,7.79,0V32.13ZM133,44.44c-1.5,0-2.83-.93-2.83-1.82V32.13a3.69,3.69,0,0,0-3.58-4c-1.77,0-3.5,1.42-3.5,4V42.67c0,1.23-1.46,1.77-2.88,1.77s-2.83-.54-2.83-1.77V32.13a3.73,3.73,0,0,0-3.63-4c-1.72,0-3.45,1.37-3.45,4V42.62c0,.89-1.33,1.82-2.88,1.82s-2.83-.93-2.83-1.82V25.18c0-1.06,1.15-1.77,2.83-1.77,1.37,0,2.53.71,2.53,1.77v1.33a6.54,6.54,0,0,1,5.84-3.36c2.52,0,4.6,1.81,5.53,4.42A7.51,7.51,0,0,1,128,23.15c4,0,7.88,3.23,7.88,9V42.62c0,.89-1.33,1.82-2.88,1.82Zm21-9h-9v.66c0,2.57,2.09,4.25,5.18,4.25,2.92,0,4.12-1.68,5.45-1.68s2.17,1.64,2.17,2.52c0,1.51-3.06,3.67-7.79,3.67-6.29,0-10.72-3.62-10.72-9.07V32c0-4.78,4.3-8.85,9.7-8.85,4.87,0,9.12,3.4,9.12,8.32,0,3.76-2.13,3.94-4.12,3.94Zm-5.13-8.06A3.61,3.61,0,0,0,145,30.8V32h6.47c.93,0,1.28-.22,1.28-1.19a3.63,3.63,0,0,0-3.89-3.5Zm23.54.22h-5.22v9.7c0,1.72.62,2.34,2.48,2.34h1.72a2.42,2.42,0,1,1,0,4.83h-1.72c-5.31,0-8.19-2.17-8.19-7.17V15.8c0-1.06,1.5-1.77,2.83-1.77s2.88.71,2.88,1.77v7.61h5.22c.93,0,1.46,1.06,1.46,2.08s-.53,2.08-1.46,2.08Z"/><path class="cls-2" d="M43.31,1.18A33.87,33.87,0,0,0,1,28.66c0,.31,0,.61-.09.92,2.76-1.45,5.51-1.27,8.63.57,3.3,2,7.11,3.48,10.32,5.65,0-.1,0-.2-.06-.3A14.76,14.76,0,0,1,38.06,19.55a9.66,9.66,0,0,0,9.26-2.41l.14-.14A9.46,9.46,0,0,0,43.31,1.18Z"/><path class="cls-3" d="M32.93,0A33.93,33.93,0,0,0,1,28.66C.8,29.81.7,30.94.64,32.07a5.23,5.23,0,0,1,4.64-2.46,5.26,5.26,0,0,1,5.35,4.14,2.83,2.83,0,0,1,2.26-1,3,3,0,0,1,2.84,4,1.8,1.8,0,0,1,1,1.2,2.27,2.27,0,0,1,2.34-2.22,2.64,2.64,0,0,1,.77.12c0-.1,0-.2-.06-.3-.05-.5-.07-1-.08-1.48-.14-1-.24-2.08-.28-3.13C18.78,16.8,29.78,4.49,43,1.09A33.92,33.92,0,0,0,32.93,0Z"/><circle class="cls-4" cx="5.13" cy="36.17" r="5.13"/><circle class="cls-4" cx="12.97" cy="35.8" r="1.9"/><circle class="cls-4" cx="8.77" cy="45.09" r="2.74"/><circle class="cls-4" cx="19.23" cy="38.07" r="1.26"/><circle class="cls-4" cx="22.01" cy="47.82" r="2.29"/><circle class="cls-4" cx="8.05" cy="53.02" r="3.46"/><circle class="cls-4" cx="2.7" cy="46" r="1.82"/><circle class="cls-5" cx="14.3" cy="54.49" r="2.01"/><circle class="cls-5" cx="16.82" cy="61.42" r="1.96"/><circle class="cls-5" cx="21.28" cy="54.83" r="2.36"/><circle class="cls-5" cx="27.12" cy="50.39" r="1.39"/><circle class="cls-6" cx="27.67" cy="57.55" r="2.09"/><circle class="cls-6" cx="23.22" cy="60.36" r="1.62"/><circle class="cls-6" cx="30.77" cy="54.09" r="1.41"/><circle class="cls-6" cx="34.71" cy="56.48" r="1.15"/><circle class="cls-6" cx="32.17" cy="60.34" r="1.39"/><circle class="cls-6" cx="28.52" cy="64.52" r="2.53"/><circle class="cls-6" cx="35.86" cy="63.38" r="1.18"/><circle class="cls-6" cx="38.09" cy="54.93" r="0.54"/><circle class="cls-4" cx="15.12" cy="38.32" r="0.73"/><circle class="cls-4" cx="16.17" cy="43.94" r="3.88"/><circle class="cls-4" cx="16.96" cy="50.67" r="1.11"/><circle class="cls-6" cx="39.17" cy="60.54" r="1.08"/><circle class="cls-6" cx="43.44" cy="63.03" r="0.83"/><circle class="cls-6" cx="45.06" cy="59.53" r="0.79"/></g></g></svg>